<svg xmlns="http://www.w3.org/2000/svg" xmlns:xlink="http://www.w3.org/1999/xlink" width="370" zoomAndPan="magnify" viewBox="0 0 277.5 374.999991" height="500" preserveAspectRatio="xMidYMid meet" version="1.0"><defs><clipPath id="b9cacd2330"><path d="M 0 0.335938 L 277 0.335938 L 277 113 L 0 113 Z M 0 0.335938 " clip-rule="nonzero"/></clipPath><clipPath id="69b813cf0e"><path d="M 145 350 L 160 350 L 160 374.660156 L 145 374.660156 Z M 145 350 " clip-rule="nonzero"/></clipPath><clipPath id="e4b3da7fd1"><path d="M 118 350 L 132 350 L 132 374.660156 L 118 374.660156 Z M 118 350 " clip-rule="nonzero"/></clipPath></defs><path fill="#39808b" d="M 241.609375 97.171875 C 190.679688 127.039062 138.753906 123.191406 138.542969 123.171875 L 138.546875 123.171875 L 138.53125 123.171875 C 138.320312 123.191406 86.390625 127.039062 35.464844 97.171875 C 35.464844 97.171875 27.28125 158.332031 39.742188 200.925781 C 39.742188 200.925781 66.628906 138.40625 138.535156 123.171875 C 210.4375 138.40625 237.320312 200.925781 237.320312 200.925781 C 249.785156 158.332031 241.609375 97.171875 241.609375 97.171875 " fill-opacity="1" fill-rule="nonzero"/><path fill="#57c7d4" d="M 29.78125 212.957031 C 29.78125 152.894531 78.464844 104.207031 138.527344 104.207031 C 198.589844 104.207031 247.277344 152.894531 247.277344 212.957031 C 247.277344 273.019531 198.589844 359.265625 138.527344 359.265625 C 78.464844 359.265625 29.78125 273.019531 29.78125 212.957031 " fill-opacity="1" fill-rule="nonzero"/><path fill="#39808b" d="M 216.894531 174.164062 C 211.835938 153.070312 194.414062 137.753906 175.472656 137.753906 C 172.695312 137.753906 169.929688 138.082031 167.234375 138.726562 C 156.5625 141.289062 147.777344 148.507812 142.496094 159.074219 C 140.660156 162.738281 139.34375 166.652344 138.53125 170.714844 C 137.710938 166.652344 136.394531 162.738281 134.558594 159.074219 C 129.28125 148.507812 120.496094 141.289062 109.824219 138.726562 C 107.128906 138.082031 104.355469 137.753906 101.578125 137.753906 C 82.640625 137.753906 65.222656 153.070312 60.164062 174.164062 C 57.347656 185.867188 58.574219 197.859375 63.617188 207.933594 C 68.894531 218.5 77.683594 225.726562 88.351562 228.28125 C 91.042969 228.921875 93.816406 229.253906 96.589844 229.253906 L 96.59375 229.253906 C 115.542969 229.253906 132.964844 213.9375 138.027344 192.839844 C 138.214844 192.058594 138.375 191.28125 138.53125 190.496094 C 138.675781 191.28125 138.847656 192.058594 139.035156 192.839844 C 144.09375 213.9375 161.519531 229.253906 180.46875 229.253906 C 183.242188 229.253906 186.007812 228.921875 188.707031 228.28125 C 199.375 225.726562 208.15625 218.5 213.441406 207.933594 C 218.476562 197.859375 219.703125 185.867188 216.894531 174.164062 " fill-opacity="1" fill-rule="nonzero"/><path fill="#ffffff" d="M 208.800781 180.273438 C 213.664062 200.527344 203.789062 220.261719 186.761719 224.347656 C 169.738281 228.433594 151.984375 215.320312 147.128906 195.058594 C 142.273438 174.800781 152.136719 155.066406 169.171875 150.984375 C 186.195312 146.898438 203.945312 160.011719 208.800781 180.273438 " fill-opacity="1" fill-rule="nonzero"/><path fill="#ffffff" d="M 68.25 180.273438 C 63.390625 200.527344 73.257812 220.261719 90.289062 224.347656 C 107.316406 228.433594 125.0625 215.320312 129.929688 195.058594 C 134.789062 174.800781 124.914062 155.066406 107.882812 150.984375 C 90.855469 146.898438 73.113281 160.011719 68.25 180.273438 " fill-opacity="1" fill-rule="nonzero"/><path fill="#231f20" d="M 175.472656 153.96875 C 173.644531 153.96875 171.820312 154.179688 170.039062 154.613281 C 162.890625 156.324219 156.9375 161.300781 153.273438 168.625 C 149.507812 176.167969 148.609375 185.246094 150.753906 194.1875 C 154.527344 209.9375 167.023438 221.367188 180.46875 221.367188 C 182.289062 221.367188 184.117188 221.148438 185.902344 220.722656 C 193.042969 219.003906 198.996094 214.03125 202.65625 206.707031 C 206.429688 199.164062 207.320312 190.082031 205.179688 181.140625 C 201.402344 165.398438 188.914062 153.96875 175.472656 153.96875 Z M 180.46875 228.820312 C 163.617188 228.820312 148.070312 214.988281 143.496094 195.929688 C 140.945312 185.28125 142.050781 174.394531 146.609375 165.292969 C 151.265625 155.960938 158.976562 149.59375 168.304688 147.359375 C 170.648438 146.796875 173.0625 146.511719 175.472656 146.511719 C 192.316406 146.511719 207.855469 160.34375 212.425781 179.398438 C 214.984375 190.050781 213.878906 200.933594 209.328125 210.042969 C 204.667969 219.371094 196.960938 225.734375 187.628906 227.972656 C 185.289062 228.539062 182.878906 228.820312 180.46875 228.820312 " fill-opacity="1" fill-rule="nonzero"/><path fill="#231f20" d="M 101.578125 153.96875 C 88.152344 153.96875 75.65625 165.398438 71.875 181.140625 C 69.730469 190.082031 70.625 199.164062 74.394531 206.707031 C 78.0625 214.03125 84.011719 219.003906 91.160156 220.722656 C 92.941406 221.148438 94.761719 221.367188 96.59375 221.367188 C 110.03125 221.367188 122.53125 209.9375 126.304688 194.1875 C 128.449219 185.246094 127.554688 176.167969 123.78125 168.625 C 120.121094 161.300781 114.164062 156.324219 107.011719 154.613281 C 105.234375 154.179688 103.410156 153.96875 101.578125 153.96875 Z M 96.59375 228.820312 C 94.179688 228.820312 91.769531 228.539062 89.421875 227.972656 C 80.101562 225.734375 72.394531 219.371094 67.726562 210.042969 C 63.175781 200.933594 62.070312 190.050781 64.625 179.398438 C 69.199219 160.34375 84.734375 146.511719 101.578125 146.511719 C 103.988281 146.511719 106.402344 146.796875 108.753906 147.359375 C 118.082031 149.59375 125.785156 155.960938 130.449219 165.292969 C 135.007812 174.398438 136.109375 185.28125 133.554688 195.929688 C 128.980469 214.988281 113.4375 228.820312 96.59375 228.820312 " fill-opacity="1" fill-rule="nonzero"/><path fill="#231f20" d="M 176.429688 189.296875 C 173.171875 190.074219 169.789062 187.574219 168.855469 183.703125 C 168.503906 182.226562 168.566406 180.773438 168.945312 179.492188 C 167.375 179.15625 165.75 179.128906 164.140625 179.519531 C 157.320312 181.15625 153.367188 189.058594 155.316406 197.171875 C 157.257812 205.28125 164.367188 210.539062 171.191406 208.90625 C 178.007812 207.261719 181.960938 199.363281 180.011719 191.25 C 179.730469 190.074219 179.320312 188.980469 178.832031 187.949219 C 178.164062 188.578125 177.355469 189.074219 176.429688 189.296875 " fill-opacity="1" fill-rule="nonzero"/><path fill="#231f20" d="M 100.625 189.296875 C 103.882812 190.074219 107.265625 187.574219 108.195312 183.703125 C 108.554688 182.226562 108.492188 180.773438 108.109375 179.492188 C 109.679688 179.15625 111.304688 179.128906 112.910156 179.519531 C 119.738281 181.15625 123.6875 189.058594 121.742188 197.171875 C 119.796875 205.28125 112.683594 210.539062 105.867188 208.90625 C 99.042969 207.261719 95.101562 199.363281 97.042969 191.25 C 97.324219 190.074219 97.738281 188.980469 98.222656 187.949219 C 98.886719 188.578125 99.703125 189.074219 100.625 189.296875 " fill-opacity="1" fill-rule="nonzero"/><path fill="#fab226" d="M 157.292969 223.027344 L 138.527344 254.609375 L 119.757812 223.027344 Z M 157.292969 223.027344 " fill-opacity="1" fill-rule="nonzero"/><path fill="#39808b" d="M 90.503906 280.410156 C 90.503906 280.410156 95.5 283.53125 99.449219 280.410156 C 99.449219 280.410156 94.867188 287.898438 90.503906 280.410156 " fill-opacity="1" fill-rule="nonzero"/><path fill="#39808b" d="M 109.644531 280.410156 C 109.644531 280.410156 114.644531 283.53125 118.59375 280.410156 C 118.59375 280.410156 114.015625 287.898438 109.644531 280.410156 " fill-opacity="1" fill-rule="nonzero"/><path fill="#39808b" d="M 128.789062 280.410156 C 128.789062 280.410156 133.785156 283.53125 137.742188 280.410156 C 137.742188 280.410156 133.160156 287.898438 128.789062 280.410156 " fill-opacity="1" fill-rule="nonzero"/><path fill="#39808b" d="M 147.929688 280.410156 C 147.929688 280.410156 152.925781 283.53125 156.882812 280.410156 C 156.882812 280.410156 152.304688 287.898438 147.929688 280.410156 " fill-opacity="1" fill-rule="nonzero"/><path fill="#39808b" d="M 167.070312 280.410156 C 167.070312 280.410156 172.070312 283.53125 176.019531 280.410156 C 176.019531 280.410156 171.445312 287.898438 167.070312 280.410156 " fill-opacity="1" fill-rule="nonzero"/><path fill="#39808b" d="M 186.21875 280.410156 C 186.21875 280.410156 191.203125 283.53125 195.164062 280.410156 C 195.164062 280.410156 190.585938 287.898438 186.21875 280.410156 " fill-opacity="1" fill-rule="nonzero"/><path fill="#39808b" d="M 99.449219 293.9375 C 99.449219 293.9375 104.441406 297.054688 108.398438 293.9375 C 108.398438 293.9375 103.820312 301.425781 99.449219 293.9375 " fill-opacity="1" fill-rule="nonzero"/><path fill="#39808b" d="M 118.59375 293.9375 C 118.59375 293.9375 123.585938 297.054688 127.542969 293.9375 C 127.542969 293.9375 122.960938 301.425781 118.59375 293.9375 " fill-opacity="1" fill-rule="nonzero"/><path fill="#39808b" d="M 137.742188 293.9375 C 137.742188 293.9375 142.726562 297.054688 146.683594 293.9375 C 146.683594 293.9375 142.105469 301.425781 137.742188 293.9375 " fill-opacity="1" fill-rule="nonzero"/><path fill="#39808b" d="M 156.882812 293.9375 C 156.882812 293.9375 161.871094 297.054688 165.824219 293.9375 C 165.824219 293.9375 161.246094 301.425781 156.882812 293.9375 " fill-opacity="1" fill-rule="nonzero"/><path fill="#39808b" d="M 176.019531 293.9375 C 176.019531 293.9375 181.011719 297.054688 184.96875 293.9375 C 184.96875 293.9375 180.390625 301.425781 176.019531 293.9375 " fill-opacity="1" fill-rule="nonzero"/><path fill="#39808b" d="M 106.324219 306.417969 C 106.324219 306.417969 111.3125 309.539062 115.265625 306.417969 C 115.265625 306.417969 110.6875 313.910156 106.324219 306.417969 " fill-opacity="1" fill-rule="nonzero"/><path fill="#39808b" d="M 125.460938 306.417969 C 125.460938 306.417969 130.453125 309.539062 134.40625 306.417969 C 134.40625 306.417969 129.824219 313.910156 125.460938 306.417969 " fill-opacity="1" fill-rule="nonzero"/><path fill="#39808b" d="M 144.601562 306.417969 C 144.601562 306.417969 149.597656 309.539062 153.546875 306.417969 C 153.546875 306.417969 148.972656 313.910156 144.601562 306.417969 " fill-opacity="1" fill-rule="nonzero"/><path fill="#39808b" d="M 163.746094 306.417969 C 163.746094 306.417969 168.742188 309.539062 172.691406 306.417969 C 172.691406 306.417969 168.113281 313.910156 163.746094 306.417969 " fill-opacity="1" fill-rule="nonzero"/><path fill="#39808b" d="M 114.644531 317.65625 C 114.644531 317.65625 119.628906 320.773438 123.585938 317.65625 C 123.585938 317.65625 119.007812 325.148438 114.644531 317.65625 " fill-opacity="1" fill-rule="nonzero"/><path fill="#39808b" d="M 133.785156 317.65625 C 133.785156 317.65625 138.777344 320.773438 142.726562 317.65625 C 142.726562 317.65625 138.148438 325.148438 133.785156 317.65625 " fill-opacity="1" fill-rule="nonzero"/><path fill="#39808b" d="M 152.925781 317.65625 C 152.925781 317.65625 157.921875 320.773438 161.871094 317.65625 C 161.871094 317.65625 157.292969 325.148438 152.925781 317.65625 " fill-opacity="1" fill-rule="nonzero"/><path fill="#39808b" d="M 121.921875 328.269531 C 121.921875 328.269531 126.917969 331.386719 130.867188 328.269531 C 130.867188 328.269531 126.292969 335.753906 121.921875 328.269531 " fill-opacity="1" fill-rule="nonzero"/><path fill="#39808b" d="M 141.0625 328.269531 C 141.0625 328.269531 146.058594 331.386719 150.015625 328.269531 C 150.015625 328.269531 145.433594 335.753906 141.0625 328.269531 " fill-opacity="1" fill-rule="nonzero"/><path fill="#39808b" d="M 132.121094 339.917969 C 132.121094 339.917969 137.109375 343.039062 141.0625 339.917969 C 141.0625 339.917969 136.488281 347.40625 132.121094 339.917969 " fill-opacity="1" fill-rule="nonzero"/><g clip-path="url(#b9cacd2330)"><path fill="#231f20" d="M 136.671875 112.734375 L 0.402344 52.378906 L 138.753906 0.339844 L 277.097656 52.378906 L 136.671875 112.734375 " fill-opacity="1" fill-rule="nonzero"/></g><path fill="#393536" d="M 136.671875 111.917969 L 58.902344 77.472656 L 58.902344 138.539062 C 67.21875 128.894531 79.511719 122.785156 93.25 122.785156 C 109.058594 122.785156 130.292969 130.882812 138.410156 143.148438 C 146.527344 130.882812 168.128906 122.785156 183.933594 122.785156 C 197.851562 122.785156 210.28125 129.050781 218.605469 138.902344 L 218.605469 76.703125 L 136.671875 111.917969 " fill-opacity="1" fill-rule="nonzero"/><path fill="#fab226" d="M 60.824219 151.878906 L 60.824219 79.753906 L 139.257812 58.390625 L 138.246094 54.683594 L 56.984375 76.820312 L 56.984375 151.878906 C 53.988281 154.03125 48.546875 160.722656 48.546875 181.003906 L 69.257812 181.003906 C 69.257812 160.726562 63.816406 154.03125 60.824219 151.878906 " fill-opacity="1" fill-rule="nonzero"/><path fill="#39808b" d="M 219.378906 220.445312 C 229.695312 216.046875 256.136719 220.015625 262.667969 241.015625 C 273.265625 275.003906 233.167969 323.761719 195.929688 315.140625 C 195.929688 315.140625 212.875 300.546875 203.929688 278.53125 C 194.984375 256.511719 194.695312 230.953125 219.378906 220.445312 " fill-opacity="1" fill-rule="nonzero"/><path fill="#39808b" d="M 57.164062 221.316406 C 46.800781 217.035156 20.410156 221.289062 14.097656 242.351562 C 3.875 276.457031 44.484375 324.785156 81.636719 315.753906 C 81.636719 315.753906 64.535156 301.347656 73.246094 279.234375 C 81.949219 257.121094 81.957031 231.5625 57.164062 221.316406 " fill-opacity="1" fill-rule="nonzero"/><g clip-path="url(#69b813cf0e)"><path fill="#fab226" d="M 159.3125 368.574219 C 159.3125 372.308594 156.285156 375.339844 152.550781 375.339844 C 148.816406 375.339844 145.792969 372.308594 145.792969 368.574219 L 145.792969 356.921875 C 145.792969 353.1875 148.816406 350.164062 152.550781 350.164062 C 156.285156 350.164062 159.3125 353.1875 159.3125 356.921875 L 159.3125 368.574219 " fill-opacity="1" fill-rule="nonzero"/></g><path fill="#fab226" d="M 172.171875 361.539062 C 172.171875 365.277344 169.144531 368.304688 165.414062 368.304688 C 161.679688 368.304688 158.65625 365.277344 158.65625 361.539062 L 158.65625 349.890625 C 158.65625 346.152344 161.679688 343.128906 165.414062 343.128906 C 169.144531 343.128906 172.171875 346.152344 172.171875 349.890625 L 172.171875 361.539062 " fill-opacity="1" fill-rule="nonzero"/><path fill="#fab226" d="M 185.039062 353.894531 C 185.039062 357.636719 182.007812 360.660156 178.273438 360.660156 C 174.546875 360.660156 171.515625 357.636719 171.515625 353.894531 L 171.515625 342.246094 C 171.515625 338.507812 174.546875 335.484375 178.273438 335.484375 C 182.007812 335.484375 185.039062 338.507812 185.039062 342.246094 L 185.039062 353.894531 " fill-opacity="1" fill-rule="nonzero"/><g clip-path="url(#e4b3da7fd1)"><path fill="#fab226" d="M 118.1875 368.574219 C 118.1875 372.308594 121.214844 375.339844 124.949219 375.339844 C 128.683594 375.339844 131.707031 372.308594 131.707031 368.574219 L 131.707031 356.921875 C 131.707031 353.1875 128.683594 350.164062 124.949219 350.164062 C 121.214844 350.164062 118.1875 353.1875 118.1875 356.921875 L 118.1875 368.574219 " fill-opacity="1" fill-rule="nonzero"/></g><path fill="#fab226" d="M 105.324219 361.539062 C 105.324219 365.277344 108.351562 368.304688 112.085938 368.304688 C 115.820312 368.304688 118.84375 365.277344 118.84375 361.539062 L 118.84375 349.890625 C 118.84375 346.152344 115.820312 343.128906 112.085938 343.128906 C 108.351562 343.128906 105.324219 346.152344 105.324219 349.890625 L 105.324219 361.539062 " fill-opacity="1" fill-rule="nonzero"/><path fill="#fab226" d="M 92.460938 353.894531 C 92.460938 357.636719 95.484375 360.660156 99.226562 360.660156 C 102.953125 360.660156 105.984375 357.636719 105.984375 353.894531 L 105.984375 342.246094 C 105.984375 338.507812 102.953125 335.484375 99.226562 335.484375 C 95.484375 335.484375 92.460938 338.507812 92.460938 342.246094 L 92.460938 353.894531 " fill-opacity="1" fill-rule="nonzero"/><path fill="#231f20" d="M 146.75 189.199219 L 130.90625 189.199219 L 130.90625 178.632812 L 146.75 178.632812 L 146.75 189.199219 " fill-opacity="1" fill-rule="nonzero"/><path fill="#231f20" d="M 244.917969 184.6875 C 244.917969 187.519531 242.617188 189.816406 239.785156 189.816406 L 212.761719 189.816406 C 209.929688 189.816406 207.636719 187.519531 207.636719 184.6875 C 207.636719 181.859375 209.929688 179.566406 212.761719 179.566406 L 239.785156 179.566406 C 242.617188 179.566406 244.917969 181.859375 244.917969 184.6875 " fill-opacity="1" fill-rule="nonzero"/><path fill="#231f20" d="M 70.332031 184.6875 C 70.332031 187.519531 68.03125 189.816406 65.207031 189.816406 L 38.179688 189.816406 C 35.347656 189.816406 33.054688 187.519531 33.054688 184.6875 C 33.054688 181.859375 35.347656 179.566406 38.179688 179.566406 L 65.207031 179.566406 C 68.03125 179.566406 70.332031 181.859375 70.332031 184.6875 " fill-opacity="1" fill-rule="nonzero"/></svg>