<svg xmlns="http://www.w3.org/2000/svg" xmlns:xlink="http://www.w3.org/1999/xlink" width="500" zoomAndPan="magnify" viewBox="0 0 375 374.999991" height="500" preserveAspectRatio="xMidYMid meet" version="1.0"><path fill="#000000" d="M 115.214844 79.046875 L 229.96875 79.046875 C 229.96875 81.074219 229.96875 83.097656 229.96875 85.125 C 191.71875 85.125 153.464844 85.125 115.214844 85.125 C 115.214844 83.097656 115.214844 81.074219 115.214844 79.046875 " fill-opacity="1" fill-rule="nonzero"/><path fill="#000000" d="M 167.085938 73.738281 L 176.550781 73.738281 C 176.550781 101.753906 176.550781 129.769531 176.550781 157.78125 C 173.394531 157.78125 170.242188 157.78125 167.085938 157.78125 C 167.085938 129.769531 167.085938 101.753906 167.085938 73.738281 " fill-opacity="1" fill-rule="nonzero"/><path fill="#000000" d="M 135.476562 157.996094 L 208.554688 157.996094 C 208.554688 162.113281 208.554688 166.226562 208.554688 170.34375 C 184.195312 170.34375 159.835938 170.34375 135.476562 170.34375 C 135.476562 166.226562 135.476562 162.109375 135.476562 157.996094 " fill-opacity="1" fill-rule="nonzero"/><path fill="#000000" d="M 99.605469 124.890625 L 99.449219 126.453125 C 99.222656 131.949219 100.972656 136.726562 104.699219 140.78125 L 105.828125 141.871094 C 106.609375 142.574219 107.441406 143.203125 108.324219 143.765625 C 109.210938 144.332031 110.136719 144.816406 111.101562 145.230469 C 113.042969 146.058594 115.066406 146.554688 117.171875 146.722656 C 122.71875 147.078125 127.585938 145.386719 131.773438 141.644531 C 133.347656 140.183594 134.640625 138.507812 135.65625 136.617188 C 136.773438 134.203125 137.34375 132.71875 137.367188 132.164062 C 137.625 131.128906 137.792969 130.082031 137.875 129.019531 C 138.027344 128.484375 137.949219 126.894531 137.648438 124.253906 L 99.605469 124.890625 " fill-opacity="1" fill-rule="nonzero"/><path fill="#000000" d="M 100.019531 127.890625 L 116.617188 88.410156 C 116.777344 88.03125 117.144531 87.78125 117.558594 87.769531 C 117.972656 87.761719 118.351562 87.992188 118.53125 88.363281 L 136.476562 125.816406 C 136.726562 126.339844 136.507812 126.964844 135.984375 127.214844 C 135.460938 127.464844 134.835938 127.242188 134.585938 126.722656 L 116.636719 89.269531 L 118.550781 89.222656 L 101.953125 128.703125 C 101.726562 129.234375 101.113281 129.484375 100.578125 129.261719 C 100.042969 129.039062 99.792969 128.421875 100.019531 127.890625 Z M 100.019531 127.890625 " fill-opacity="1" fill-rule="nonzero"/><path fill="#000000" d="M 208.246094 123.664062 L 208.09375 125.222656 C 208.035156 126.269531 208.0625 127.3125 208.171875 128.355469 C 208.125 128.902344 208.476562 130.425781 209.238281 132.929688 C 209.964844 134.910156 210.988281 136.722656 212.3125 138.367188 C 215.828125 142.601562 220.332031 144.976562 225.816406 145.492188 C 231.363281 145.851562 236.230469 144.15625 240.417969 140.414062 C 241.199219 139.691406 241.917969 138.90625 242.566406 138.0625 C 244.066406 135.867188 244.875 134.496094 244.992188 133.953125 C 245.84375 131.984375 246.351562 129.929688 246.519531 127.789062 C 246.667969 127.253906 246.59375 125.664062 246.289062 123.023438 L 208.246094 123.664062 " fill-opacity="1" fill-rule="nonzero"/><path fill="#000000" d="M 208.835938 127.1875 L 225.4375 87.710938 C 225.597656 87.328125 225.964844 87.078125 226.378906 87.066406 C 226.789062 87.058594 227.171875 87.289062 227.347656 87.664062 L 245.296875 125.113281 C 245.546875 125.636719 245.328125 126.261719 244.804688 126.511719 C 244.28125 126.761719 243.65625 126.539062 243.40625 126.019531 L 225.457031 88.566406 L 227.371094 88.519531 L 210.769531 128 C 210.546875 128.53125 209.933594 128.785156 209.398438 128.558594 C 208.863281 128.335938 208.613281 127.722656 208.835938 127.1875 Z M 208.835938 127.1875 " fill-opacity="1" fill-rule="nonzero"/><path fill="#000000" d="M 160.777344 71.464844 L 160.800781 70.566406 C 161.058594 67.417969 162.40625 64.835938 164.839844 62.816406 C 165.785156 62.058594 166.824219 61.476562 167.964844 61.066406 C 168.53125 60.863281 169.109375 60.707031 169.703125 60.601562 C 170.292969 60.496094 170.890625 60.4375 171.492188 60.429688 L 172.390625 60.453125 C 173.582031 60.542969 174.707031 60.804688 175.761719 61.242188 L 176.542969 61.597656 C 177.054688 61.855469 177.539062 62.152344 178.003906 62.488281 C 178.46875 62.824219 178.90625 63.195312 179.3125 63.601562 C 181.40625 65.75 182.464844 68.324219 182.496094 71.324219 L 160.777344 71.464844 " fill-opacity="1" fill-rule="nonzero"/><path fill="#000000" d="M 67.601562 6.132812 C 42.558594 28.273438 19.515625 66.890625 17.09375 104.585938 C 15.96875 122.089844 19.304688 140.105469 24.984375 158.855469 C 27.328125 166.585938 34.007812 180.558594 45.558594 200.75 C 51.589844 211.285156 69.375 233.71875 96.160156 266.085938 C 114.988281 234.847656 134.367188 228.925781 178.128906 217.242188 C 126.058594 204.019531 74.089844 164.332031 58.28125 92.328125 C 52.171875 64.515625 60.007812 19.929688 67.445312 5.820312 Z M 67.601562 6.132812 " fill-opacity="1" fill-rule="nonzero"/><path fill="#000000" d="M 280.617188 0.195312 L 280.617188 0.203125 C 294.121094 22.773438 299.996094 47.289062 298.191406 73.742188 C 297.589844 82.546875 296.070312 91.550781 293.6875 100.746094 L 289.441406 114.683594 C 286.164062 124.070312 281.660156 133.480469 276.890625 143.390625 C 266.214844 165.5625 249.675781 184.042969 226.402344 198.535156 C 210.929688 208.171875 198.808594 214.832031 189.988281 218.472656 C 183.113281 221.3125 156.691406 229.179688 136.816406 237.332031 C 115.289062 246.160156 99.789062 268.535156 99.789062 268.535156 C 98.632812 270.859375 97.746094 271.417969 97.695312 275.40625 C 97.597656 283.25 101.839844 287.378906 107.105469 287.992188 C 100.878906 295.847656 97.335938 303.449219 99.433594 308.574219 C 103.625 318.832031 116.921875 308.292969 116.921875 308.292969 C 105.644531 320.722656 109.625 332.257812 109.625 332.257812 C 115.699219 339.351562 122.980469 338.640625 131.46875 330.132812 C 123.078125 354.460938 140.621094 354.699219 140.621094 354.699219 C 146.203125 354.773438 152.3125 353.183594 158.953125 350.449219 L 184.570312 334.195312 L 187.765625 331.601562 C 181.550781 324.351562 179.570312 317.859375 181.28125 311.957031 C 183.707031 303.585938 188.308594 299.605469 195.625 300.175781 C 196.648438 291.710938 198.722656 285.25 202.347656 281.21875 C 205.035156 278.226562 209.398438 277.011719 214.953125 277.117188 C 215.59375 271.167969 217.429688 266.195312 220.894531 262.609375 C 224.582031 258.792969 229.894531 257.53125 236.398438 258.402344 C 238.382812 252.769531 241.269531 248.847656 245.214844 246.949219 C 251.246094 244.042969 258.769531 245.519531 267.636719 251.0625 C 298.75 220.304688 320.414062 197.53125 327.792969 180.382812 C 344.785156 140.871094 359.503906 54.453125 282.933594 2.054688 Z M 280.617188 0.195312 " fill-opacity="1" fill-rule="nonzero"/><path fill="#000000" d="M 258.859375 251.234375 L 273.320312 264.285156 C 277.300781 267.878906 277.609375 274.015625 274.011719 277.992188 C 270.417969 281.96875 264.273438 282.28125 260.292969 278.6875 L 245.832031 265.632812 C 241.851562 262.039062 241.539062 255.902344 245.136719 251.925781 C 248.734375 247.949219 254.878906 247.640625 258.859375 251.234375 Z M 258.859375 251.234375 " fill-opacity="1" fill-rule="nonzero"/><path fill="#000000" d="M 240.433594 266.03125 L 262.289062 288.089844 C 266.894531 292.734375 266.855469 300.230469 262.203125 304.832031 C 257.550781 309.429688 250.046875 309.394531 245.441406 304.746094 L 223.585938 282.6875 C 218.980469 278.042969 219.019531 270.546875 223.671875 265.945312 C 228.324219 261.347656 235.828125 261.382812 240.433594 266.03125 Z M 240.433594 266.03125 " fill-opacity="1" fill-rule="nonzero"/><path fill="#000000" d="M 221.972656 286.261719 L 250.183594 313.398438 C 254.898438 317.933594 255.042969 325.425781 250.5 330.136719 C 245.960938 334.847656 238.457031 334.988281 233.742188 330.453125 L 205.53125 303.316406 C 200.816406 298.78125 200.675781 291.289062 205.214844 286.578125 C 209.753906 281.867188 217.257812 281.726562 221.972656 286.261719 Z M 221.972656 286.261719 " fill-opacity="1" fill-rule="nonzero"/><path fill="#000000" d="M 198.039062 305.574219 L 197.261719 305.597656 C 195.15625 305.734375 193.222656 306.449219 191.378906 307.613281 C 190.152344 308.390625 188.757812 309.660156 187.621094 311.761719 C 185.519531 315.632812 185.6875 319.605469 187.839844 323.453125 C 188.351562 324.363281 189.03125 325.179688 189.816406 325.941406 L 194.265625 330.730469 C 196.804688 330.199219 203.78125 330.21875 209.425781 335.753906 C 212.597656 338.867188 216.683594 346.878906 214.816406 349.929688 L 218.027344 353.074219 C 218.199219 353.296875 218.785156 353.820312 219.867188 354.527344 C 222.050781 355.945312 224.460938 356.519531 227.023438 356.359375 C 229.132812 356.230469 231.066406 355.511719 232.910156 354.34375 C 234.132812 353.570312 235.527344 352.296875 236.667969 350.199219 C 238.769531 346.324219 238.597656 342.351562 236.445312 338.507812 C 235.9375 337.59375 235.257812 336.777344 234.472656 336.019531 L 205.671875 308.355469 C 203.847656 306.671875 201.304688 305.746094 198.039062 305.574219 Z M 198.039062 305.574219 " fill-opacity="1" fill-rule="nonzero"/><path fill="#000000" d="M 170.65625 348.613281 L 191.164062 336.082031 C 197.332031 332.3125 205.386719 334.25 209.160156 340.410156 C 212.933594 346.570312 210.992188 354.617188 204.828125 358.386719 L 184.320312 370.917969 C 178.152344 374.6875 170.097656 372.75 166.324219 366.589844 C 162.550781 360.429688 164.492188 352.382812 170.65625 348.613281 Z M 170.65625 348.613281 " fill-opacity="1" fill-rule="nonzero"/></svg>