<svg xmlns="http://www.w3.org/2000/svg" xmlns:xlink="http://www.w3.org/1999/xlink" zoomAndPan="magnify" preserveAspectRatio="xMidYMid meet" version="1.0" viewBox="3.75 1.59 30 35.94"><defs><clipPath id="2cbd914f4c"><path d="M 5 34 L 9 34 L 9 37.007812 L 5 37.007812 Z M 5 34 " clip-rule="nonzero"/></clipPath><clipPath id="07f9463d2b"><path d="M 5 36 L 6 36 L 6 37.007812 L 5 37.007812 Z M 5 36 " clip-rule="nonzero"/></clipPath><clipPath id="8b721b75a0"><path d="M 5 36 L 8 36 L 8 37.007812 L 5 37.007812 Z M 5 36 " clip-rule="nonzero"/></clipPath><clipPath id="46931a1531"><path d="M 3.75 28 L 11 28 L 11 37.007812 L 3.75 37.007812 Z M 3.75 28 " clip-rule="nonzero"/></clipPath><clipPath id="df608c11fa"><path d="M 6 29 L 11 29 L 11 37.007812 L 6 37.007812 Z M 6 29 " clip-rule="nonzero"/></clipPath><clipPath id="c2b0926799"><path d="M 29 34 L 33 34 L 33 37.007812 L 29 37.007812 Z M 29 34 " clip-rule="nonzero"/></clipPath><clipPath id="4755811cac"><path d="M 32 36 L 33 36 L 33 37.007812 L 32 37.007812 Z M 32 36 " clip-rule="nonzero"/></clipPath><clipPath id="ded7316755"><path d="M 29 36 L 33 36 L 33 37.007812 L 29 37.007812 Z M 29 36 " clip-rule="nonzero"/></clipPath><clipPath id="c71e31bb65"><path d="M 26 28 L 33.75 28 L 33.75 37.007812 L 26 37.007812 Z M 26 28 " clip-rule="nonzero"/></clipPath><clipPath id="a65abd6f99"><path d="M 26 29 L 31 29 L 31 37.007812 L 26 37.007812 Z M 26 29 " clip-rule="nonzero"/></clipPath><clipPath id="502b43d485"><path d="M 8 26 L 30 26 L 30 37.007812 L 8 37.007812 Z M 8 26 " clip-rule="nonzero"/></clipPath></defs><path fill="#321c1d" d="M 25.707031 7.074219 C 25.707031 7.074219 28.753906 18.003906 26.496094 23.898438 C 26.496094 23.898438 22.433594 25.628906 19.136719 25.046875 L 19.152344 7.550781 L 25.707031 7.074219 " fill-opacity="1" fill-rule="nonzero"/><path fill="#211517" d="M 27.273438 16.488281 C 27.238281 15.894531 27.1875 15.304688 27.125 14.726562 L 24 14.726562 L 20.222656 20.523438 C 20.222656 20.523438 19.695312 20.953125 19.140625 21.5 L 19.136719 23.757812 C 19.550781 23.710938 20.082031 23.605469 20.753906 23.421875 C 26.882812 21.769531 26.980469 16.953125 26.980469 16.953125 L 27.273438 16.488281 " fill-opacity="1" fill-rule="nonzero"/><path fill="#321c1d" d="M 12.632812 6.273438 C 12.632812 6.273438 8.226562 15.488281 11.332031 23.898438 C 11.332031 23.898438 15.394531 25.628906 18.695312 25.046875 L 18.679688 7.550781 L 12.632812 6.273438 " fill-opacity="1" fill-rule="nonzero"/><g clip-path="url(#2cbd914f4c)"><path fill="#f0a176" d="M 8.027344 37.53125 L 5.773438 34.339844 C 5.773438 34.339844 5.523438 35.597656 5.148438 37.53125 L 8.027344 37.53125 " fill-opacity="1" fill-rule="nonzero"/></g><g clip-path="url(#07f9463d2b)"><path fill="#d99c78" d="M 5.148438 37.53125 C 5.253906 36.984375 5.351562 36.488281 5.433594 36.0625 C 5.351562 36.488281 5.253906 36.984375 5.148438 37.53125 " fill-opacity="1" fill-rule="nonzero"/></g><g clip-path="url(#8b721b75a0)"><path fill="#d6855a" d="M 7.785156 37.53125 L 5.148438 37.53125 C 5.253906 36.984375 5.351562 36.488281 5.433594 36.0625 L 7.785156 37.53125 " fill-opacity="1" fill-rule="nonzero"/></g><g clip-path="url(#46931a1531)"><path fill="#f465ac" d="M 9.90625 37.53125 C 10.722656 33.882812 11.59375 28.632812 9.210938 28.398438 C 9.210938 28.398438 6.964844 28.949219 6.011719 30.667969 C 5.320312 31.90625 4.285156 35.585938 3.761719 37.53125 L 9.90625 37.53125 " fill-opacity="1" fill-rule="nonzero"/></g><g clip-path="url(#df608c11fa)"><path fill="#e0358f" d="M 9.90625 37.53125 C 10.542969 34.691406 11.144531 30.863281 10.253906 29.195312 C 10.097656 29.195312 9.929688 29.214844 9.75 29.257812 C 6.660156 29.984375 6.632812 34.207031 7.121094 37.53125 L 9.90625 37.53125 " fill-opacity="1" fill-rule="nonzero"/></g><g clip-path="url(#c2b0926799)"><path fill="#f0a176" d="M 32.351562 37.53125 C 31.976562 35.597656 31.726562 34.339844 31.726562 34.339844 L 29.472656 37.53125 L 32.351562 37.53125 " fill-opacity="1" fill-rule="nonzero"/></g><g clip-path="url(#4755811cac)"><path fill="#d99c78" d="M 32.28125 37.152344 C 32.203125 36.753906 32.128906 36.390625 32.066406 36.0625 C 32.128906 36.390625 32.203125 36.753906 32.28125 37.152344 " fill-opacity="1" fill-rule="nonzero"/></g><g clip-path="url(#ded7316755)"><path fill="#d6855a" d="M 32.351562 37.53125 L 29.714844 37.53125 L 32.066406 36.0625 C 32.128906 36.390625 32.203125 36.753906 32.28125 37.152344 C 32.304688 37.273438 32.328125 37.402344 32.351562 37.53125 " fill-opacity="1" fill-rule="nonzero"/></g><g clip-path="url(#c71e31bb65)"><path fill="#f465ac" d="M 33.738281 37.53125 C 33.214844 35.585938 32.179688 31.90625 31.488281 30.667969 C 30.535156 28.949219 28.398438 28.367188 28.398438 28.367188 C 26.015625 28.601562 26.777344 33.882812 27.59375 37.53125 L 33.738281 37.53125 " fill-opacity="1" fill-rule="nonzero"/></g><g clip-path="url(#a65abd6f99)"><path fill="#e0358f" d="M 30.378906 37.53125 C 30.871094 34.207031 30.839844 29.984375 27.75 29.257812 C 27.570312 29.214844 27.402344 29.195312 27.246094 29.195312 C 26.359375 30.863281 26.957031 34.691406 27.59375 37.53125 L 30.378906 37.53125 " fill-opacity="1" fill-rule="nonzero"/></g><g clip-path="url(#502b43d485)"><path fill="#f465ac" d="M 28.296875 37.53125 C 28.855469 33 29.261719 29.214844 29.128906 28.613281 C 29.128906 28.613281 22.828125 26.59375 21.769531 26.089844 L 18.84375 26.582031 L 16.050781 26.089844 C 14.992188 26.59375 8.558594 28.613281 8.558594 28.613281 C 8.425781 29.214844 8.832031 33 9.390625 37.53125 L 28.296875 37.53125 " fill-opacity="1" fill-rule="nonzero"/></g><path fill="#d48c66" d="M 20.773438 21.75 L 18.910156 22.238281 L 17.046875 21.75 C 17.046875 21.75 16.863281 25.65625 15.289062 27.199219 C 15.289062 27.199219 18.820312 30.9375 19.097656 30.953125 C 19.664062 30.953125 22.53125 27.199219 22.53125 27.199219 C 20.957031 25.65625 20.773438 21.75 20.773438 21.75 " fill-opacity="1" fill-rule="nonzero"/><path fill="#c4744d" d="M 16.6875 24.21875 C 17.742188 24.738281 19.296875 25.238281 21.453125 25.328125 C 20.9375 23.863281 20.804688 22.21875 20.777344 21.835938 L 18.910156 22.238281 L 17.042969 21.835938 C 17.023438 22.121094 16.941406 23.117188 16.6875 24.21875 " fill-opacity="1" fill-rule="nonzero"/><path fill="#d17a50" d="M 12.953125 14.464844 C 13.03125 15.507812 12.578125 16.386719 11.945312 16.4375 C 11.308594 16.484375 10.730469 15.675781 10.652344 14.636719 C 10.578125 13.59375 11.027344 12.710938 11.664062 12.664062 C 12.296875 12.617188 12.875 13.421875 12.953125 14.464844 " fill-opacity="1" fill-rule="nonzero"/><path fill="#ba6449" d="M 11.792969 15.816406 C 11.773438 15.816406 11.753906 15.8125 11.734375 15.808594 C 11.707031 15.800781 11.683594 15.789062 11.65625 15.777344 C 11.621094 15.753906 11.585938 15.730469 11.554688 15.703125 L 11.554688 15.621094 C 11.578125 15.628906 11.597656 15.628906 11.617188 15.628906 C 11.789062 15.628906 11.804688 15.386719 11.804688 15.386719 C 11.664062 15.292969 11.585938 15.195312 11.554688 15.089844 L 11.554688 14.800781 C 11.636719 14.515625 11.917969 14.277344 11.917969 14.277344 C 11.75 14.316406 11.632812 14.386719 11.554688 14.464844 L 11.554688 13.957031 C 11.574219 13.929688 11.597656 13.902344 11.621094 13.878906 C 11.65625 13.851562 11.683594 13.820312 11.722656 13.804688 C 11.738281 13.792969 11.757812 13.785156 11.773438 13.773438 C 11.792969 13.769531 11.808594 13.765625 11.828125 13.757812 C 11.84375 13.753906 11.859375 13.746094 11.878906 13.742188 C 11.894531 13.742188 11.910156 13.738281 11.925781 13.738281 C 11.953125 13.734375 11.976562 13.730469 12 13.730469 C 12.003906 13.730469 12.011719 13.730469 12.015625 13.730469 C 12.042969 13.734375 12.0625 13.734375 12.082031 13.738281 C 12.101562 13.738281 12.113281 13.742188 12.125 13.742188 C 12.15625 13.820312 12.175781 13.90625 12.195312 13.988281 C 12.214844 14.101562 12.226562 14.214844 12.230469 14.328125 C 12.234375 14.382812 12.234375 14.441406 12.234375 14.5 L 12.234375 14.632812 C 12.152344 14.660156 12.078125 14.6875 12 14.726562 C 11.957031 14.746094 11.914062 14.769531 11.875 14.796875 C 11.832031 14.828125 11.789062 14.859375 11.757812 14.910156 C 11.742188 14.933594 11.730469 14.964844 11.726562 15 C 11.726562 15.03125 11.734375 15.066406 11.753906 15.09375 C 11.769531 15.117188 11.789062 15.140625 11.808594 15.15625 C 11.828125 15.175781 11.847656 15.1875 11.871094 15.203125 C 11.945312 15.25 12.023438 15.28125 12.105469 15.308594 C 12.089844 15.40625 12.0625 15.507812 12.027344 15.601562 C 12.003906 15.652344 11.976562 15.703125 11.941406 15.742188 C 11.921875 15.761719 11.902344 15.777344 11.882812 15.792969 C 11.859375 15.804688 11.835938 15.8125 11.808594 15.8125 C 11.804688 15.816406 11.800781 15.816406 11.792969 15.816406 M 11.554688 13.769531 L 11.554688 13.492188 L 11.5625 13.488281 C 11.585938 13.476562 11.617188 13.472656 11.640625 13.464844 L 11.683594 13.453125 C 11.691406 13.453125 11.710938 13.449219 11.722656 13.449219 C 11.738281 13.445312 11.75 13.445312 11.761719 13.445312 C 11.765625 13.445312 11.773438 13.445312 11.777344 13.445312 C 11.785156 13.445312 11.789062 13.445312 11.796875 13.445312 C 11.796875 13.445312 11.800781 13.445312 11.800781 13.445312 C 11.828125 13.449219 11.851562 13.453125 11.875 13.460938 C 11.953125 13.488281 12.015625 13.542969 12.058594 13.617188 C 12.046875 13.617188 12.027344 13.617188 12.011719 13.617188 C 12.011719 13.617188 12.011719 13.617188 12.007812 13.617188 C 11.980469 13.617188 11.945312 13.625 11.910156 13.632812 C 11.890625 13.636719 11.871094 13.636719 11.851562 13.640625 C 11.832031 13.648438 11.8125 13.65625 11.792969 13.664062 C 11.773438 13.675781 11.753906 13.683594 11.730469 13.691406 C 11.714844 13.703125 11.695312 13.714844 11.679688 13.726562 C 11.632812 13.738281 11.589844 13.753906 11.554688 13.769531 " fill-opacity="1" fill-rule="nonzero"/><path fill="#9a4f36" d="M 11.074219 14.296875 C 11.058594 14.183594 11.066406 14.0625 11.09375 13.949219 C 11.097656 13.921875 11.109375 13.894531 11.117188 13.863281 C 11.125 13.835938 11.136719 13.808594 11.152344 13.78125 C 11.164062 13.753906 11.179688 13.730469 11.195312 13.703125 C 11.207031 13.679688 11.226562 13.652344 11.246094 13.632812 L 11.277344 13.597656 L 11.308594 13.566406 C 11.332031 13.546875 11.351562 13.523438 11.378906 13.507812 C 11.40625 13.492188 11.429688 13.472656 11.457031 13.460938 L 11.539062 13.421875 C 11.566406 13.410156 11.59375 13.402344 11.621094 13.394531 L 11.667969 13.382812 C 11.683594 13.375 11.695312 13.375 11.710938 13.371094 C 11.738281 13.367188 11.773438 13.367188 11.804688 13.363281 C 11.835938 13.367188 11.871094 13.371094 11.902344 13.378906 C 11.964844 13.398438 12.019531 13.433594 12.066406 13.476562 C 12.113281 13.523438 12.148438 13.574219 12.175781 13.628906 C 12.234375 13.738281 12.265625 13.855469 12.292969 13.96875 C 12.316406 14.085938 12.328125 14.203125 12.335938 14.320312 C 12.339844 14.378906 12.339844 14.4375 12.34375 14.496094 C 12.34375 14.554688 12.339844 14.617188 12.339844 14.671875 L 12.335938 14.710938 L 12.300781 14.722656 C 12.214844 14.746094 12.125 14.78125 12.046875 14.816406 C 12.003906 14.835938 11.964844 14.855469 11.929688 14.882812 C 11.894531 14.90625 11.859375 14.933594 11.839844 14.960938 C 11.832031 14.976562 11.828125 14.992188 11.824219 15.003906 C 11.828125 15.015625 11.828125 15.03125 11.835938 15.042969 C 11.84375 15.058594 11.855469 15.074219 11.871094 15.085938 C 11.886719 15.101562 11.902344 15.113281 11.921875 15.125 C 11.992188 15.171875 12.078125 15.207031 12.164062 15.238281 L 12.199219 15.25 L 12.195312 15.285156 C 12.183594 15.34375 12.171875 15.402344 12.152344 15.460938 C 12.136719 15.519531 12.117188 15.574219 12.089844 15.628906 C 12.0625 15.683594 12.03125 15.738281 11.988281 15.785156 C 11.964844 15.808594 11.941406 15.828125 11.910156 15.84375 C 11.882812 15.859375 11.847656 15.867188 11.816406 15.871094 C 11.78125 15.871094 11.75 15.863281 11.71875 15.855469 C 11.691406 15.84375 11.660156 15.828125 11.636719 15.8125 C 11.585938 15.777344 11.539062 15.738281 11.5 15.695312 C 11.417969 15.609375 11.351562 15.511719 11.289062 15.414062 C 11.324219 15.460938 11.359375 15.503906 11.402344 15.550781 C 11.4375 15.59375 11.476562 15.636719 11.519531 15.675781 C 11.5625 15.714844 11.609375 15.75 11.65625 15.777344 C 11.683594 15.789062 11.707031 15.800781 11.734375 15.808594 C 11.757812 15.8125 11.785156 15.816406 11.808594 15.8125 C 11.835938 15.8125 11.859375 15.804688 11.882812 15.792969 C 11.902344 15.777344 11.921875 15.761719 11.941406 15.742188 C 11.976562 15.703125 12.003906 15.652344 12.027344 15.601562 C 12.070312 15.496094 12.09375 15.382812 12.109375 15.273438 L 12.136719 15.320312 C 12.046875 15.289062 11.957031 15.257812 11.871094 15.203125 C 11.847656 15.1875 11.828125 15.175781 11.808594 15.15625 C 11.789062 15.140625 11.769531 15.117188 11.753906 15.09375 C 11.734375 15.066406 11.726562 15.03125 11.726562 15 C 11.730469 14.964844 11.742188 14.933594 11.757812 14.910156 C 11.789062 14.859375 11.832031 14.828125 11.875 14.796875 C 11.914062 14.769531 11.957031 14.746094 12 14.726562 C 12.089844 14.683594 12.179688 14.648438 12.273438 14.621094 L 12.234375 14.671875 L 12.234375 14.5 C 12.234375 14.441406 12.234375 14.382812 12.230469 14.328125 C 12.226562 14.214844 12.214844 14.101562 12.195312 13.988281 C 12.171875 13.878906 12.144531 13.769531 12.09375 13.671875 C 12.046875 13.574219 11.972656 13.496094 11.875 13.460938 C 11.851562 13.453125 11.828125 13.449219 11.800781 13.445312 C 11.792969 13.445312 11.785156 13.445312 11.777344 13.445312 C 11.761719 13.445312 11.742188 13.445312 11.722656 13.449219 C 11.710938 13.449219 11.691406 13.453125 11.683594 13.453125 L 11.640625 13.464844 C 11.617188 13.472656 11.585938 13.476562 11.5625 13.488281 L 11.484375 13.519531 C 11.460938 13.53125 11.4375 13.546875 11.414062 13.5625 C 11.390625 13.574219 11.367188 13.59375 11.347656 13.609375 L 11.316406 13.636719 L 11.289062 13.667969 C 11.269531 13.6875 11.25 13.707031 11.234375 13.730469 C 11.21875 13.753906 11.203125 13.777344 11.1875 13.800781 C 11.175781 13.828125 11.160156 13.851562 11.152344 13.878906 C 11.140625 13.902344 11.128906 13.929688 11.121094 13.957031 C 11.101562 14.011719 11.09375 14.070312 11.085938 14.125 C 11.078125 14.183594 11.070312 14.238281 11.074219 14.296875 " fill-opacity="1" fill-rule="nonzero"/><path fill="#9a4f36" d="M 11.359375 14.679688 C 11.359375 14.679688 11.347656 14.585938 11.355469 14.445312 C 11.355469 14.410156 11.363281 14.375 11.363281 14.332031 C 11.371094 14.292969 11.375 14.25 11.386719 14.207031 C 11.398438 14.164062 11.40625 14.121094 11.425781 14.074219 C 11.4375 14.03125 11.460938 13.988281 11.484375 13.945312 C 11.507812 13.902344 11.535156 13.863281 11.566406 13.824219 C 11.601562 13.789062 11.632812 13.753906 11.675781 13.730469 C 11.695312 13.71875 11.714844 13.703125 11.730469 13.691406 C 11.753906 13.683594 11.773438 13.675781 11.792969 13.664062 C 11.8125 13.65625 11.832031 13.648438 11.851562 13.640625 C 11.871094 13.636719 11.890625 13.636719 11.910156 13.632812 C 11.945312 13.625 11.980469 13.613281 12.011719 13.617188 C 12.042969 13.617188 12.066406 13.617188 12.089844 13.613281 C 12.132812 13.617188 12.15625 13.617188 12.15625 13.617188 L 12.140625 13.742188 C 12.140625 13.742188 12.121094 13.742188 12.082031 13.738281 C 12.0625 13.734375 12.042969 13.734375 12.015625 13.730469 C 11.988281 13.730469 11.960938 13.734375 11.925781 13.738281 C 11.910156 13.738281 11.894531 13.742188 11.878906 13.742188 C 11.859375 13.746094 11.84375 13.753906 11.828125 13.757812 C 11.808594 13.765625 11.792969 13.769531 11.773438 13.773438 C 11.757812 13.785156 11.738281 13.792969 11.722656 13.804688 C 11.683594 13.820312 11.65625 13.851562 11.621094 13.878906 C 11.589844 13.90625 11.5625 13.941406 11.539062 13.976562 C 11.515625 14.015625 11.488281 14.054688 11.472656 14.097656 C 11.453125 14.136719 11.4375 14.175781 11.425781 14.21875 C 11.410156 14.257812 11.40625 14.300781 11.394531 14.339844 C 11.386719 14.378906 11.378906 14.414062 11.375 14.449219 C 11.355469 14.585938 11.359375 14.679688 11.359375 14.679688 " fill-opacity="1" fill-rule="nonzero"/><path fill="#d17a50" d="M 24.902344 14.464844 C 24.824219 15.507812 25.277344 16.386719 25.910156 16.4375 C 26.546875 16.484375 27.125 15.675781 27.203125 14.636719 C 27.28125 13.59375 26.828125 12.710938 26.191406 12.664062 C 25.558594 12.617188 24.980469 13.421875 24.902344 14.464844 " fill-opacity="1" fill-rule="nonzero"/><path fill="#ba6449" d="M 26.0625 15.816406 C 26.058594 15.816406 26.050781 15.816406 26.046875 15.8125 C 26.019531 15.8125 25.996094 15.804688 25.972656 15.792969 C 25.953125 15.777344 25.933594 15.761719 25.914062 15.742188 C 25.878906 15.703125 25.851562 15.652344 25.832031 15.601562 C 25.792969 15.507812 25.765625 15.40625 25.753906 15.308594 C 25.832031 15.28125 25.910156 15.25 25.984375 15.203125 C 26.007812 15.1875 26.027344 15.175781 26.046875 15.15625 C 26.066406 15.140625 26.085938 15.117188 26.101562 15.09375 C 26.121094 15.066406 26.128906 15.03125 26.128906 15 C 26.125 14.964844 26.113281 14.933594 26.097656 14.910156 C 26.066406 14.859375 26.023438 14.828125 25.984375 14.796875 C 25.941406 14.769531 25.898438 14.746094 25.855469 14.726562 C 25.777344 14.6875 25.703125 14.660156 25.621094 14.632812 L 25.621094 14.5 C 25.621094 14.441406 25.621094 14.382812 25.625 14.328125 C 25.628906 14.214844 25.640625 14.101562 25.660156 13.988281 C 25.679688 13.90625 25.699219 13.820312 25.730469 13.742188 C 25.742188 13.742188 25.753906 13.738281 25.773438 13.738281 C 25.792969 13.734375 25.816406 13.734375 25.839844 13.730469 C 25.847656 13.730469 25.851562 13.730469 25.855469 13.730469 C 25.878906 13.730469 25.902344 13.734375 25.929688 13.738281 C 25.945312 13.738281 25.960938 13.742188 25.980469 13.742188 C 25.996094 13.746094 26.011719 13.753906 26.03125 13.757812 C 26.046875 13.765625 26.066406 13.769531 26.082031 13.773438 C 26.101562 13.785156 26.117188 13.792969 26.132812 13.804688 C 26.148438 13.808594 26.164062 13.820312 26.175781 13.828125 L 26.175781 14.371094 C 26.113281 14.332031 26.03125 14.296875 25.9375 14.277344 C 25.9375 14.277344 26.066406 14.386719 26.175781 14.546875 L 26.175781 15.285156 C 26.144531 15.320312 26.101562 15.351562 26.050781 15.386719 C 26.050781 15.386719 26.0625 15.570312 26.175781 15.617188 L 26.175781 15.785156 C 26.160156 15.792969 26.140625 15.800781 26.121094 15.808594 C 26.101562 15.8125 26.082031 15.816406 26.0625 15.816406 M 26.175781 13.726562 C 26.160156 13.714844 26.140625 13.703125 26.125 13.691406 C 26.101562 13.683594 26.082031 13.675781 26.0625 13.664062 C 26.042969 13.65625 26.023438 13.648438 26.003906 13.640625 C 25.984375 13.636719 25.964844 13.636719 25.945312 13.632812 C 25.910156 13.625 25.875 13.617188 25.847656 13.617188 C 25.847656 13.617188 25.847656 13.617188 25.84375 13.617188 C 25.828125 13.617188 25.808594 13.617188 25.796875 13.617188 C 25.84375 13.542969 25.902344 13.488281 25.980469 13.460938 C 26.003906 13.453125 26.03125 13.449219 26.054688 13.445312 C 26.054688 13.445312 26.058594 13.445312 26.058594 13.445312 C 26.066406 13.445312 26.070312 13.445312 26.078125 13.445312 C 26.082031 13.445312 26.089844 13.445312 26.09375 13.445312 C 26.105469 13.445312 26.117188 13.445312 26.132812 13.449219 C 26.144531 13.449219 26.164062 13.453125 26.171875 13.453125 L 26.175781 13.457031 L 26.175781 13.726562 " fill-opacity="1" fill-rule="nonzero"/><path fill="#9a4f36" d="M 26.78125 14.296875 C 26.785156 14.238281 26.78125 14.183594 26.773438 14.125 C 26.761719 14.070312 26.753906 14.011719 26.734375 13.957031 C 26.726562 13.929688 26.714844 13.902344 26.703125 13.878906 C 26.695312 13.851562 26.679688 13.828125 26.667969 13.800781 C 26.65625 13.777344 26.636719 13.753906 26.621094 13.730469 C 26.605469 13.707031 26.585938 13.6875 26.570312 13.667969 L 26.539062 13.636719 L 26.507812 13.609375 C 26.488281 13.59375 26.464844 13.574219 26.441406 13.5625 C 26.417969 13.546875 26.394531 13.53125 26.371094 13.519531 L 26.292969 13.488281 C 26.269531 13.476562 26.238281 13.472656 26.214844 13.464844 L 26.171875 13.453125 C 26.164062 13.453125 26.144531 13.449219 26.132812 13.449219 C 26.113281 13.445312 26.09375 13.445312 26.078125 13.445312 C 26.070312 13.445312 26.0625 13.445312 26.054688 13.445312 C 26.03125 13.449219 26.003906 13.453125 25.980469 13.460938 C 25.882812 13.496094 25.8125 13.574219 25.761719 13.671875 C 25.710938 13.769531 25.683594 13.878906 25.660156 13.988281 C 25.640625 14.101562 25.628906 14.214844 25.625 14.328125 C 25.621094 14.382812 25.621094 14.441406 25.621094 14.5 L 25.621094 14.671875 L 25.585938 14.621094 C 25.679688 14.648438 25.765625 14.683594 25.855469 14.726562 C 25.898438 14.746094 25.941406 14.769531 25.984375 14.796875 C 26.023438 14.828125 26.066406 14.859375 26.097656 14.910156 C 26.113281 14.933594 26.125 14.964844 26.128906 15 C 26.128906 15.03125 26.121094 15.066406 26.101562 15.09375 C 26.085938 15.117188 26.066406 15.140625 26.046875 15.15625 C 26.027344 15.175781 26.007812 15.1875 25.984375 15.203125 C 25.898438 15.257812 25.808594 15.289062 25.71875 15.320312 L 25.746094 15.273438 C 25.761719 15.382812 25.789062 15.496094 25.832031 15.601562 C 25.851562 15.652344 25.878906 15.703125 25.914062 15.742188 C 25.933594 15.761719 25.953125 15.777344 25.972656 15.792969 C 25.996094 15.804688 26.019531 15.8125 26.046875 15.8125 C 26.070312 15.816406 26.097656 15.8125 26.121094 15.808594 C 26.148438 15.800781 26.171875 15.789062 26.199219 15.777344 C 26.246094 15.75 26.292969 15.714844 26.335938 15.675781 C 26.378906 15.636719 26.417969 15.59375 26.457031 15.550781 C 26.496094 15.503906 26.53125 15.460938 26.566406 15.414062 C 26.503906 15.511719 26.4375 15.609375 26.355469 15.695312 C 26.316406 15.738281 26.269531 15.777344 26.21875 15.8125 C 26.195312 15.828125 26.167969 15.84375 26.136719 15.855469 C 26.105469 15.863281 26.074219 15.871094 26.042969 15.871094 C 26.007812 15.867188 25.976562 15.859375 25.945312 15.84375 C 25.917969 15.828125 25.890625 15.808594 25.867188 15.785156 C 25.824219 15.738281 25.792969 15.683594 25.765625 15.628906 C 25.738281 15.574219 25.71875 15.519531 25.703125 15.460938 C 25.683594 15.402344 25.671875 15.34375 25.660156 15.285156 L 25.65625 15.25 L 25.691406 15.238281 C 25.777344 15.207031 25.863281 15.171875 25.933594 15.125 C 25.953125 15.113281 25.972656 15.101562 25.984375 15.085938 C 26 15.074219 26.011719 15.058594 26.019531 15.042969 C 26.03125 15.03125 26.03125 15.015625 26.03125 15.003906 C 26.027344 14.992188 26.027344 14.976562 26.015625 14.960938 C 25.996094 14.933594 25.960938 14.90625 25.925781 14.882812 C 25.890625 14.855469 25.851562 14.835938 25.808594 14.816406 C 25.730469 14.78125 25.640625 14.746094 25.554688 14.722656 L 25.519531 14.710938 L 25.515625 14.671875 C 25.515625 14.617188 25.511719 14.554688 25.511719 14.496094 C 25.515625 14.4375 25.515625 14.378906 25.519531 14.320312 C 25.527344 14.203125 25.539062 14.085938 25.5625 13.96875 C 25.589844 13.855469 25.621094 13.738281 25.679688 13.628906 C 25.707031 13.574219 25.742188 13.523438 25.789062 13.476562 C 25.835938 13.433594 25.894531 13.398438 25.953125 13.378906 C 25.988281 13.371094 26.019531 13.367188 26.050781 13.363281 C 26.082031 13.367188 26.117188 13.367188 26.144531 13.371094 C 26.160156 13.375 26.171875 13.375 26.191406 13.382812 L 26.234375 13.394531 C 26.261719 13.402344 26.289062 13.410156 26.320312 13.421875 L 26.398438 13.460938 C 26.429688 13.472656 26.453125 13.492188 26.476562 13.507812 C 26.503906 13.523438 26.523438 13.546875 26.546875 13.566406 L 26.582031 13.597656 L 26.609375 13.632812 C 26.628906 13.652344 26.648438 13.679688 26.660156 13.703125 C 26.679688 13.730469 26.695312 13.753906 26.703125 13.78125 C 26.71875 13.808594 26.730469 13.835938 26.738281 13.863281 C 26.75 13.894531 26.757812 13.921875 26.761719 13.949219 C 26.789062 14.0625 26.796875 14.183594 26.78125 14.296875 " fill-opacity="1" fill-rule="nonzero"/><path fill="#9a4f36" d="M 26.496094 14.679688 C 26.496094 14.679688 26.5 14.585938 26.480469 14.449219 C 26.476562 14.414062 26.46875 14.378906 26.460938 14.339844 C 26.449219 14.300781 26.445312 14.257812 26.429688 14.21875 C 26.417969 14.175781 26.402344 14.136719 26.382812 14.097656 C 26.367188 14.054688 26.339844 14.015625 26.320312 13.976562 C 26.292969 13.941406 26.265625 13.90625 26.234375 13.878906 C 26.203125 13.851562 26.171875 13.820312 26.132812 13.804688 C 26.117188 13.792969 26.101562 13.785156 26.082031 13.773438 C 26.066406 13.769531 26.046875 13.765625 26.03125 13.757812 C 26.011719 13.753906 25.996094 13.746094 25.980469 13.742188 C 25.960938 13.742188 25.945312 13.738281 25.929688 13.738281 C 25.894531 13.734375 25.867188 13.730469 25.839844 13.730469 C 25.816406 13.734375 25.792969 13.734375 25.773438 13.738281 C 25.734375 13.742188 25.714844 13.742188 25.714844 13.742188 L 25.699219 13.617188 C 25.699219 13.617188 25.722656 13.617188 25.765625 13.613281 C 25.789062 13.617188 25.816406 13.617188 25.84375 13.617188 C 25.875 13.613281 25.910156 13.625 25.945312 13.632812 C 25.964844 13.636719 25.984375 13.636719 26.003906 13.640625 C 26.023438 13.648438 26.042969 13.65625 26.0625 13.664062 C 26.082031 13.675781 26.101562 13.683594 26.125 13.691406 C 26.144531 13.703125 26.164062 13.71875 26.179688 13.730469 C 26.222656 13.753906 26.253906 13.789062 26.289062 13.824219 C 26.320312 13.863281 26.347656 13.902344 26.371094 13.945312 C 26.394531 13.988281 26.417969 14.03125 26.429688 14.074219 C 26.449219 14.121094 26.457031 14.164062 26.46875 14.207031 C 26.480469 14.25 26.484375 14.292969 26.492188 14.332031 C 26.496094 14.375 26.5 14.410156 26.5 14.445312 C 26.507812 14.585938 26.496094 14.679688 26.496094 14.679688 " fill-opacity="1" fill-rule="nonzero"/><path fill="#f0a176" d="M 25.1875 14.476562 C 25.1875 15.683594 25.066406 16.671875 24.675781 18.015625 C 23.804688 21.035156 20.847656 23.421875 18.910156 23.421875 C 16.945312 23.421875 13.960938 20.953125 13.105469 17.886719 C 12.742188 16.582031 12.632812 15.644531 12.632812 14.476562 C 12.632812 10.570312 12.570312 5.457031 18.910156 5.457031 C 25.25 5.457031 25.1875 10.570312 25.1875 14.476562 " fill-opacity="1" fill-rule="nonzero"/><path fill="#d48c66" d="M 24.769531 14.878906 C 24.769531 14.878906 24.972656 14.289062 25.183594 13.394531 C 25.179688 12.984375 25.167969 12.5625 25.148438 12.144531 C 23.609375 10.953125 22.875 7.59375 22.652344 6.371094 C 22.582031 6.328125 22.511719 6.285156 22.4375 6.242188 C 20.328125 10.839844 13.921875 10.957031 12.785156 10.855469 C 12.667969 11.761719 12.640625 12.699219 12.636719 13.605469 C 14.632812 13.609375 18.808594 13.046875 21.96875 8.71875 C 21.96875 8.71875 22.253906 14.128906 24.769531 14.878906 " fill-opacity="1" fill-rule="nonzero"/><path fill="#d48c66" d="M 23.476562 7.050781 C 24.613281 8.890625 24.59375 11.496094 24.59375 13.710938 C 24.59375 14.914062 24.472656 15.902344 24.085938 17.25 C 23.214844 20.265625 20.257812 22.65625 18.320312 22.65625 C 17.09375 22.65625 15.480469 21.699219 14.226562 20.238281 C 15.523438 22.125 17.484375 23.421875 18.910156 23.421875 C 20.847656 23.421875 23.804688 21.035156 24.675781 18.015625 C 25.066406 16.671875 25.1875 15.683594 25.1875 14.476562 C 25.1875 11.933594 25.214844 8.875 23.476562 7.050781 " fill-opacity="1" fill-rule="nonzero"/><path fill="#885138" d="M 17.664062 12.195312 C 17.664062 12.195312 17.621094 12.164062 17.535156 12.121094 C 17.453125 12.074219 17.332031 12.011719 17.1875 11.953125 C 17.113281 11.921875 17.03125 11.890625 16.945312 11.863281 C 16.859375 11.835938 16.769531 11.8125 16.675781 11.789062 C 16.582031 11.769531 16.480469 11.757812 16.378906 11.746094 C 16.28125 11.738281 16.179688 11.734375 16.078125 11.742188 C 15.972656 11.742188 15.871094 11.753906 15.773438 11.773438 C 15.722656 11.78125 15.675781 11.796875 15.625 11.804688 C 15.578125 11.816406 15.53125 11.832031 15.484375 11.84375 C 15.394531 11.875 15.304688 11.90625 15.21875 11.941406 C 15.175781 11.957031 15.140625 11.976562 15.101562 11.996094 C 15.0625 12.011719 15.023438 12.027344 14.988281 12.046875 C 14.917969 12.085938 14.851562 12.117188 14.796875 12.152344 C 14.738281 12.1875 14.6875 12.214844 14.648438 12.238281 C 14.566406 12.289062 14.519531 12.316406 14.519531 12.316406 C 14.519531 12.316406 14.554688 12.273438 14.617188 12.203125 C 14.648438 12.164062 14.691406 12.125 14.742188 12.078125 C 14.789062 12.03125 14.847656 11.980469 14.914062 11.929688 C 14.980469 11.878906 15.054688 11.824219 15.136719 11.777344 C 15.222656 11.730469 15.3125 11.679688 15.410156 11.640625 C 15.511719 11.605469 15.617188 11.566406 15.726562 11.542969 C 15.835938 11.519531 15.949219 11.5 16.066406 11.496094 C 16.179688 11.492188 16.296875 11.5 16.40625 11.511719 C 16.519531 11.527344 16.628906 11.554688 16.730469 11.582031 C 16.832031 11.613281 16.925781 11.652344 17.015625 11.695312 C 17.101562 11.734375 17.179688 11.78125 17.25 11.828125 C 17.390625 11.921875 17.496094 12.011719 17.566406 12.082031 C 17.632812 12.152344 17.664062 12.195312 17.664062 12.195312 " fill-opacity="1" fill-rule="nonzero"/><path fill="#432423" d="M 11.804688 12.316406 C 11.804688 12.316406 17.992188 13.40625 22.292969 7.511719 C 22.292969 7.511719 22.582031 12.921875 25.097656 13.671875 C 25.097656 13.671875 28.105469 4.921875 22.949219 3.867188 C 22.949219 3.867188 13.136719 0.0273438 11.804688 7.429688 C 11.566406 8.738281 11.398438 10.03125 11.804688 12.316406 " fill-opacity="1" fill-rule="nonzero"/><path fill="#2d191b" d="M 22.292969 7.511719 C 22.292969 7.511719 22.582031 12.921875 25.097656 13.671875 C 25.097656 13.671875 25.472656 12.574219 25.730469 11.109375 C 23.640625 9.898438 22.902344 4.714844 22.902344 4.714844 C 20.832031 9.925781 13.445312 9.746094 12.960938 9.625 C 12.664062 9.550781 12.273438 7.84375 12.019531 6.554688 C 11.933594 6.828125 11.859375 7.117188 11.804688 7.429688 C 11.566406 8.738281 11.398438 10.03125 11.804688 12.316406 C 11.804688 12.316406 17.992188 13.40625 22.292969 7.511719 " fill-opacity="1" fill-rule="nonzero"/><path fill="#673636" d="M 21.527344 5.457031 C 21.527344 5.457031 17.597656 4.695312 14.558594 3.507812 C 13.679688 3.929688 12.921875 4.597656 12.398438 5.609375 C 14.449219 5.914062 17.871094 6.183594 21.527344 5.457031 " fill-opacity="1" fill-rule="nonzero"/><path fill="#cd8059" d="M 18.929688 21.339844 C 18.683594 21.339844 18.394531 21.195312 18.078125 20.765625 C 18.078125 20.765625 18.449219 20.941406 18.941406 20.941406 C 19.1875 20.941406 19.464844 20.898438 19.742188 20.765625 C 19.742188 20.765625 19.421875 21.339844 18.929688 21.339844 " fill-opacity="1" fill-rule="nonzero"/><path fill="#211a1b" d="M 17.039062 14.640625 C 17.039062 15.109375 16.765625 15.488281 16.425781 15.488281 C 16.089844 15.488281 15.8125 15.109375 15.8125 14.640625 C 15.8125 14.175781 16.089844 13.796875 16.425781 13.796875 C 16.765625 13.796875 17.039062 14.175781 17.039062 14.640625 " fill-opacity="1" fill-rule="nonzero"/><path fill="#211a1b" d="M 22.082031 14.640625 C 22.082031 15.109375 21.808594 15.488281 21.46875 15.488281 C 21.132812 15.488281 20.859375 15.109375 20.859375 14.640625 C 20.859375 14.175781 21.132812 13.796875 21.46875 13.796875 C 21.808594 13.796875 22.082031 14.175781 22.082031 14.640625 " fill-opacity="1" fill-rule="nonzero"/><path fill="#885138" d="M 20.222656 12.195312 C 20.222656 12.195312 20.253906 12.152344 20.324219 12.082031 C 20.390625 12.011719 20.496094 11.921875 20.636719 11.828125 C 20.707031 11.78125 20.785156 11.734375 20.875 11.695312 C 20.960938 11.652344 21.058594 11.613281 21.160156 11.582031 C 21.261719 11.554688 21.371094 11.527344 21.480469 11.511719 C 21.59375 11.5 21.707031 11.492188 21.824219 11.496094 C 21.9375 11.5 22.050781 11.519531 22.164062 11.542969 C 22.273438 11.566406 22.378906 11.605469 22.476562 11.640625 C 22.574219 11.679688 22.667969 11.730469 22.75 11.777344 C 22.832031 11.824219 22.910156 11.878906 22.976562 11.929688 C 23.039062 11.980469 23.101562 12.03125 23.148438 12.078125 C 23.195312 12.125 23.238281 12.164062 23.269531 12.203125 C 23.335938 12.273438 23.371094 12.316406 23.371094 12.316406 C 23.371094 12.316406 23.320312 12.289062 23.238281 12.238281 C 23.199219 12.214844 23.148438 12.1875 23.09375 12.152344 C 23.035156 12.117188 22.96875 12.085938 22.898438 12.046875 C 22.867188 12.027344 22.828125 12.011719 22.789062 11.996094 C 22.75 11.976562 22.710938 11.957031 22.667969 11.941406 C 22.585938 11.90625 22.496094 11.875 22.402344 11.84375 C 22.355469 11.832031 22.308594 11.816406 22.261719 11.804688 C 22.214844 11.796875 22.164062 11.78125 22.113281 11.773438 C 22.015625 11.753906 21.914062 11.742188 21.8125 11.742188 C 21.710938 11.734375 21.609375 11.738281 21.507812 11.746094 C 21.40625 11.757812 21.308594 11.769531 21.214844 11.789062 C 21.121094 11.8125 21.027344 11.835938 20.941406 11.863281 C 20.855469 11.890625 20.777344 11.921875 20.703125 11.953125 C 20.554688 12.011719 20.4375 12.074219 20.351562 12.121094 C 20.269531 12.164062 20.222656 12.195312 20.222656 12.195312 " fill-opacity="1" fill-rule="nonzero"/><path fill="#1e2230" d="M 10.914062 15.480469 C 10.914062 15.484375 10.910156 15.5 10.910156 15.535156 C 10.914062 15.796875 10.953125 16.960938 11.644531 18.265625 C 11.988281 18.921875 12.5 19.609375 13.246094 20.230469 C 13.992188 20.855469 14.972656 21.410156 16.261719 21.808594 L 16.359375 21.492188 C 15.109375 21.109375 14.164062 20.574219 13.453125 19.980469 C 12.386719 19.089844 11.835938 18.066406 11.546875 17.21875 C 11.261719 16.375 11.238281 15.707031 11.238281 15.535156 C 11.238281 15.519531 11.238281 15.511719 11.238281 15.503906 L 11.238281 15.492188 L 10.914062 15.480469 " fill-opacity="1" fill-rule="nonzero"/><path fill="#1e2230" d="M 27.191406 14.1875 L 26.253906 14.1875 L 26.253906 10.140625 C 26.253906 5.945312 22.84375 2.53125 18.65625 2.53125 C 14.46875 2.53125 11.058594 5.945312 11.058594 10.140625 L 11.058594 14.1875 L 10.117188 14.1875 L 10.117188 10.140625 C 10.117188 5.425781 13.949219 1.589844 18.65625 1.589844 C 23.363281 1.589844 27.191406 5.425781 27.191406 10.140625 L 27.191406 14.1875 " fill-opacity="1" fill-rule="nonzero"/><path fill="#282f49" d="M 11.554688 11.710938 C 11.53125 11.710938 11.511719 11.707031 11.488281 11.707031 C 9.824219 11.707031 8.476562 13.0625 8.476562 14.726562 C 8.476562 16.394531 9.824219 17.746094 11.488281 17.746094 C 11.511719 17.746094 11.53125 17.746094 11.554688 17.746094 L 11.554688 11.710938 " fill-opacity="1" fill-rule="nonzero"/><path fill="#29212b" d="M 11.460938 11.710938 L 11.460938 11.710938 M 11.464844 11.707031 C 11.464844 11.707031 11.46875 11.707031 11.46875 11.707031 C 11.46875 11.707031 11.464844 11.707031 11.464844 11.707031 M 11.46875 11.707031 C 11.472656 11.707031 11.472656 11.707031 11.472656 11.707031 C 11.472656 11.707031 11.472656 11.707031 11.46875 11.707031 M 11.472656 11.707031 C 11.476562 11.707031 11.476562 11.707031 11.476562 11.707031 C 11.476562 11.707031 11.476562 11.707031 11.472656 11.707031 M 11.480469 11.707031 C 11.480469 11.707031 11.480469 11.707031 11.484375 11.707031 C 11.480469 11.707031 11.480469 11.707031 11.480469 11.707031 M 11.484375 11.707031 C 11.484375 11.707031 11.488281 11.707031 11.488281 11.707031 C 11.488281 11.707031 11.484375 11.707031 11.484375 11.707031 " fill-opacity="1" fill-rule="nonzero"/><path fill="#1f2433" d="M 11.488281 17.746094 C 11.488281 17.746094 11.484375 17.746094 11.484375 17.746094 C 11.484375 17.746094 11.488281 17.746094 11.488281 17.746094 C 11.511719 17.746094 11.53125 17.746094 11.554688 17.746094 L 11.554688 17.238281 L 11.554688 17.746094 C 11.53125 17.746094 11.511719 17.746094 11.488281 17.746094 M 11.484375 17.746094 C 11.480469 17.746094 11.480469 17.746094 11.480469 17.746094 C 11.480469 17.746094 11.480469 17.746094 11.484375 17.746094 M 11.476562 17.746094 L 11.476562 17.746094 M 11.472656 17.746094 C 11.472656 17.746094 11.472656 17.746094 11.46875 17.746094 C 11.472656 17.746094 11.472656 17.746094 11.472656 17.746094 M 11.46875 17.746094 C 11.46875 17.746094 11.464844 17.746094 11.464844 17.746094 C 11.464844 17.746094 11.46875 17.746094 11.46875 17.746094 M 11.464844 17.746094 C 11.460938 17.746094 11.460938 17.746094 11.460938 17.746094 C 11.460938 17.746094 11.460938 17.746094 11.464844 17.746094 " fill-opacity="1" fill-rule="nonzero"/><path fill="#23293d" d="M 11.488281 17.746094 C 11.488281 17.746094 11.484375 17.746094 11.484375 17.746094 C 11.480469 17.746094 11.480469 17.746094 11.480469 17.746094 C 11.480469 17.746094 11.480469 17.746094 11.476562 17.746094 C 11.472656 17.746094 11.472656 17.746094 11.472656 17.746094 C 11.472656 17.746094 11.472656 17.746094 11.46875 17.746094 C 11.46875 17.746094 11.464844 17.746094 11.464844 17.746094 C 11.460938 17.746094 11.460938 17.746094 11.460938 17.746094 C 10.976562 17.742188 10.523438 17.625 10.117188 17.417969 L 10.117188 12.039062 C 10.523438 11.832031 10.980469 11.714844 11.460938 11.710938 C 11.464844 11.710938 11.464844 11.710938 11.464844 11.707031 C 11.464844 11.707031 11.46875 11.707031 11.46875 11.707031 C 11.472656 11.707031 11.472656 11.707031 11.472656 11.707031 C 11.476562 11.707031 11.476562 11.707031 11.476562 11.707031 C 11.480469 11.707031 11.480469 11.707031 11.480469 11.707031 C 11.480469 11.707031 11.480469 11.707031 11.484375 11.707031 C 11.484375 11.707031 11.488281 11.707031 11.488281 11.707031 C 11.511719 11.707031 11.53125 11.710938 11.554688 11.710938 L 11.554688 17.746094 C 11.53125 17.746094 11.511719 17.746094 11.488281 17.746094 " fill-opacity="1" fill-rule="nonzero"/><path fill="#202133" d="M 12.632812 17.632812 C 12.632812 17.960938 12.371094 18.222656 12.042969 18.222656 L 11.339844 18.222656 C 11.015625 18.222656 10.75 17.960938 10.75 17.632812 L 10.75 11.824219 C 10.75 11.496094 11.015625 11.230469 11.339844 11.230469 L 12.042969 11.230469 C 12.371094 11.230469 12.632812 11.496094 12.632812 11.824219 L 12.632812 17.632812 " fill-opacity="1" fill-rule="nonzero"/><path fill="#282f49" d="M 26.175781 11.53125 C 26.199219 11.53125 26.21875 11.53125 26.242188 11.53125 C 27.90625 11.53125 29.253906 12.882812 29.253906 14.550781 C 29.253906 16.21875 27.90625 17.570312 26.242188 17.570312 C 26.21875 17.570312 26.199219 17.566406 26.175781 17.566406 L 26.175781 11.53125 " fill-opacity="1" fill-rule="nonzero"/><path fill="#231f28" d="M 26.242188 17.570312 C 26.21875 17.570312 26.199219 17.566406 26.175781 17.566406 C 26.199219 17.566406 26.21875 17.570312 26.242188 17.570312 C 26.242188 17.570312 26.246094 17.570312 26.246094 17.570312 C 26.246094 17.570312 26.242188 17.570312 26.242188 17.570312 M 26.246094 17.570312 C 26.246094 17.570312 26.25 17.570312 26.25 17.570312 C 26.25 17.570312 26.246094 17.570312 26.246094 17.570312 M 26.253906 17.570312 L 26.253906 17.570312 M 26.257812 17.570312 C 26.257812 17.570312 26.257812 17.570312 26.261719 17.570312 C 26.257812 17.570312 26.257812 17.570312 26.257812 17.570312 M 26.261719 17.570312 C 26.261719 17.570312 26.265625 17.570312 26.265625 17.570312 C 26.265625 17.570312 26.261719 17.570312 26.261719 17.570312 M 26.265625 17.570312 C 26.265625 17.570312 26.269531 17.570312 26.269531 17.570312 C 26.269531 17.570312 26.265625 17.570312 26.265625 17.570312 " fill-opacity="1" fill-rule="nonzero"/><path fill="#23293d" d="M 26.242188 17.570312 C 26.21875 17.570312 26.199219 17.566406 26.175781 17.566406 L 26.175781 11.53125 C 26.199219 11.53125 26.21875 11.53125 26.242188 11.53125 C 26.242188 11.53125 26.246094 11.53125 26.246094 11.53125 C 26.246094 11.53125 26.25 11.53125 26.25 11.53125 C 26.25 11.53125 26.25 11.53125 26.253906 11.53125 C 26.257812 11.53125 26.257812 11.53125 26.257812 11.53125 C 26.257812 11.53125 26.257812 11.53125 26.261719 11.53125 C 26.261719 11.53125 26.261719 11.53125 26.265625 11.53125 C 26.265625 11.53125 26.269531 11.53125 26.269531 11.53125 C 26.75 11.535156 27.207031 11.65625 27.609375 11.859375 L 27.609375 17.238281 C 27.207031 17.445312 26.75 17.566406 26.269531 17.570312 C 26.269531 17.570312 26.265625 17.570312 26.265625 17.570312 C 26.265625 17.570312 26.261719 17.570312 26.261719 17.570312 C 26.257812 17.570312 26.257812 17.570312 26.257812 17.570312 C 26.257812 17.570312 26.257812 17.570312 26.253906 17.570312 C 26.25 17.570312 26.25 17.570312 26.25 17.570312 C 26.25 17.570312 26.246094 17.570312 26.246094 17.570312 C 26.246094 17.570312 26.242188 17.570312 26.242188 17.570312 " fill-opacity="1" fill-rule="nonzero"/><path fill="#202133" d="M 25.097656 17.457031 C 25.097656 17.78125 25.359375 18.046875 25.6875 18.046875 L 26.390625 18.046875 C 26.714844 18.046875 26.980469 17.78125 26.980469 17.457031 L 26.980469 11.644531 C 26.980469 11.320312 26.714844 11.054688 26.390625 11.054688 L 25.6875 11.054688 C 25.359375 11.054688 25.097656 11.320312 25.097656 11.644531 L 25.097656 17.457031 " fill-opacity="1" fill-rule="nonzero"/><path fill="#202133" d="M 18.320312 21.707031 C 18.320312 21.996094 18.085938 22.230469 17.796875 22.230469 L 16.421875 22.230469 C 16.132812 22.230469 15.898438 21.996094 15.898438 21.707031 L 15.898438 21.398438 C 15.898438 21.109375 16.132812 20.875 16.421875 20.875 L 17.796875 20.875 C 18.085938 20.875 18.320312 21.109375 18.320312 21.398438 L 18.320312 21.707031 " fill-opacity="1" fill-rule="nonzero"/><path fill="#f89ecd" d="M 15.289062 27.199219 L 13.484375 31.808594 L 19.136719 30.953125 Z M 15.289062 27.199219 " fill-opacity="1" fill-rule="nonzero"/><path fill="#f89ecd" d="M 22.53125 27.199219 L 24.300781 31.808594 L 18.753906 30.953125 Z M 22.53125 27.199219 " fill-opacity="1" fill-rule="nonzero"/><path fill="#b05838" d="M 18.277344 17.226562 C 18.28125 17.226562 18.269531 17.199219 18.273438 17.144531 C 18.273438 17.117188 18.277344 17.085938 18.285156 17.050781 C 18.296875 17.011719 18.308594 16.972656 18.332031 16.933594 C 18.355469 16.890625 18.386719 16.851562 18.421875 16.808594 C 18.460938 16.773438 18.503906 16.730469 18.554688 16.703125 C 18.605469 16.671875 18.660156 16.644531 18.722656 16.628906 C 18.785156 16.609375 18.84375 16.601562 18.914062 16.601562 C 18.945312 16.601562 18.96875 16.601562 19.003906 16.609375 C 19.035156 16.613281 19.070312 16.617188 19.097656 16.628906 C 19.160156 16.644531 19.214844 16.671875 19.265625 16.703125 C 19.316406 16.730469 19.359375 16.773438 19.398438 16.808594 C 19.433594 16.851562 19.464844 16.890625 19.488281 16.933594 C 19.511719 16.972656 19.523438 17.011719 19.535156 17.050781 C 19.542969 17.085938 19.546875 17.117188 19.546875 17.144531 C 19.550781 17.195312 19.539062 17.226562 19.539062 17.226562 C 19.539062 17.226562 19.539062 17.21875 19.535156 17.203125 C 19.53125 17.191406 19.527344 17.171875 19.515625 17.148438 C 19.507812 17.128906 19.492188 17.101562 19.476562 17.074219 C 19.460938 17.042969 19.4375 17.015625 19.410156 16.984375 C 19.355469 16.925781 19.285156 16.871094 19.195312 16.828125 C 19.152344 16.804688 19.105469 16.792969 19.058594 16.78125 C 19.035156 16.773438 19.011719 16.769531 18.988281 16.765625 C 18.96875 16.761719 18.933594 16.765625 18.90625 16.761719 C 18.863281 16.765625 18.808594 16.765625 18.761719 16.78125 C 18.714844 16.792969 18.667969 16.804688 18.625 16.828125 C 18.535156 16.871094 18.460938 16.925781 18.410156 16.984375 C 18.382812 17.015625 18.359375 17.042969 18.34375 17.074219 C 18.328125 17.101562 18.3125 17.128906 18.304688 17.148438 C 18.292969 17.171875 18.289062 17.191406 18.285156 17.203125 C 18.28125 17.21875 18.277344 17.226562 18.277344 17.226562 " fill-opacity="1" fill-rule="nonzero"/><path fill="#e82f76" d="M 17.066406 18.542969 C 17.066406 18.542969 18.402344 18.128906 20.753906 18.503906 C 20.753906 18.503906 19.035156 21.925781 17.066406 18.542969 " fill-opacity="1" fill-rule="nonzero"/><path fill="#c4ecfb" d="M 17.242188 18.542969 C 17.242188 18.542969 18.570312 19.300781 20.648438 18.542969 C 20.648438 18.542969 19.007812 20.953125 17.242188 18.542969 " fill-opacity="1" fill-rule="nonzero"/><path fill="#c7d3df" d="M 17.242188 18.542969 C 17.261719 18.570312 17.285156 18.597656 17.304688 18.625 C 17.773438 18.96875 18.914062 19.578125 20.574219 18.644531 C 20.636719 18.566406 20.648438 18.542969 20.648438 18.542969 C 18.570312 19.300781 17.242188 18.542969 17.242188 18.542969 " fill-opacity="1" fill-rule="nonzero"/><path fill="#211a1b" d="M 17.199219 13.796875 C 17.199219 13.796875 17.152344 13.773438 17.070312 13.738281 C 17.027344 13.722656 16.976562 13.703125 16.921875 13.683594 C 16.894531 13.671875 16.863281 13.664062 16.832031 13.65625 C 16.800781 13.644531 16.765625 13.636719 16.730469 13.628906 C 16.664062 13.609375 16.589844 13.597656 16.511719 13.585938 C 16.472656 13.585938 16.433594 13.582031 16.394531 13.578125 C 16.355469 13.582031 16.3125 13.585938 16.273438 13.585938 C 16.234375 13.589844 16.195312 13.601562 16.15625 13.605469 C 16.132812 13.605469 16.113281 13.613281 16.097656 13.621094 L 16.039062 13.640625 C 15.996094 13.648438 15.960938 13.671875 15.921875 13.6875 C 15.886719 13.707031 15.847656 13.722656 15.8125 13.75 L 15.707031 13.824219 C 15.675781 13.855469 15.640625 13.882812 15.609375 13.914062 L 15.558594 13.957031 C 15.542969 13.972656 15.527344 13.988281 15.511719 14.007812 C 15.484375 14.039062 15.453125 14.074219 15.421875 14.105469 C 15.398438 14.128906 15.347656 14.191406 15.308594 14.21875 C 15.265625 14.253906 15.222656 14.289062 15.171875 14.3125 C 15.078125 14.363281 14.972656 14.386719 14.875 14.378906 C 14.828125 14.375 14.785156 14.363281 14.742188 14.347656 C 14.707031 14.332031 14.671875 14.3125 14.640625 14.292969 C 14.613281 14.269531 14.585938 14.253906 14.566406 14.230469 C 14.546875 14.210938 14.53125 14.191406 14.515625 14.171875 C 14.484375 14.136719 14.46875 14.101562 14.457031 14.082031 C 14.445312 14.058594 14.4375 14.046875 14.4375 14.046875 C 14.4375 14.046875 14.449219 14.054688 14.472656 14.066406 C 14.492188 14.078125 14.523438 14.097656 14.5625 14.117188 C 14.582031 14.125 14.601562 14.132812 14.625 14.144531 C 14.648438 14.152344 14.675781 14.160156 14.703125 14.167969 C 14.753906 14.175781 14.8125 14.183594 14.867188 14.164062 C 14.921875 14.152344 14.972656 14.125 15.023438 14.078125 C 15.050781 14.058594 15.074219 14.03125 15.097656 14.003906 C 15.121094 13.972656 15.128906 13.960938 15.164062 13.910156 C 15.191406 13.867188 15.222656 13.828125 15.253906 13.785156 C 15.269531 13.761719 15.285156 13.738281 15.300781 13.71875 L 15.359375 13.660156 C 15.398438 13.621094 15.4375 13.582031 15.476562 13.542969 C 15.523438 13.507812 15.570312 13.476562 15.617188 13.441406 C 15.664062 13.410156 15.71875 13.386719 15.769531 13.359375 C 15.824219 13.335938 15.875 13.3125 15.933594 13.300781 C 16.046875 13.265625 16.160156 13.261719 16.269531 13.261719 C 16.324219 13.269531 16.378906 13.273438 16.429688 13.28125 C 16.476562 13.292969 16.527344 13.308594 16.574219 13.320312 C 16.664062 13.351562 16.746094 13.390625 16.8125 13.433594 C 16.886719 13.476562 16.941406 13.523438 16.992188 13.5625 C 17.042969 13.605469 17.082031 13.648438 17.109375 13.679688 C 17.171875 13.75 17.199219 13.796875 17.199219 13.796875 " fill-opacity="1" fill-rule="nonzero"/><path fill="#211a1b" d="M 20.527344 13.796875 C 20.527344 13.796875 20.554688 13.75 20.613281 13.679688 C 20.644531 13.648438 20.683594 13.605469 20.734375 13.5625 C 20.785156 13.523438 20.839844 13.476562 20.914062 13.433594 C 20.980469 13.390625 21.0625 13.351562 21.152344 13.320312 C 21.199219 13.308594 21.25 13.292969 21.296875 13.28125 C 21.347656 13.273438 21.402344 13.269531 21.457031 13.261719 C 21.566406 13.261719 21.679688 13.265625 21.792969 13.300781 C 21.851562 13.3125 21.902344 13.335938 21.957031 13.359375 C 22.007812 13.386719 22.0625 13.410156 22.109375 13.441406 C 22.15625 13.476562 22.203125 13.507812 22.25 13.542969 C 22.289062 13.582031 22.328125 13.621094 22.367188 13.660156 L 22.425781 13.71875 C 22.441406 13.738281 22.457031 13.761719 22.472656 13.785156 C 22.503906 13.828125 22.535156 13.867188 22.5625 13.910156 C 22.597656 13.960938 22.605469 13.972656 22.628906 14.003906 C 22.652344 14.03125 22.675781 14.058594 22.703125 14.078125 C 22.753906 14.125 22.804688 14.152344 22.859375 14.164062 C 22.886719 14.175781 22.914062 14.171875 22.945312 14.175781 C 22.972656 14.175781 23 14.171875 23.027344 14.167969 C 23.050781 14.15625 23.078125 14.152344 23.101562 14.144531 C 23.125 14.132812 23.144531 14.125 23.164062 14.117188 C 23.203125 14.097656 23.234375 14.078125 23.253906 14.066406 C 23.277344 14.054688 23.289062 14.046875 23.289062 14.046875 C 23.289062 14.046875 23.28125 14.058594 23.269531 14.082031 C 23.257812 14.101562 23.242188 14.136719 23.210938 14.171875 C 23.195312 14.191406 23.179688 14.210938 23.160156 14.230469 C 23.140625 14.253906 23.113281 14.269531 23.085938 14.292969 C 23.054688 14.3125 23.019531 14.332031 22.984375 14.347656 C 22.945312 14.363281 22.898438 14.375 22.851562 14.378906 C 22.753906 14.386719 22.648438 14.363281 22.554688 14.3125 C 22.503906 14.289062 22.460938 14.253906 22.417969 14.21875 C 22.378906 14.191406 22.328125 14.128906 22.304688 14.105469 C 22.273438 14.074219 22.242188 14.039062 22.214844 14.007812 C 22.199219 13.988281 22.183594 13.972656 22.167969 13.957031 L 22.121094 13.914062 C 22.085938 13.882812 22.050781 13.855469 22.019531 13.824219 L 21.914062 13.75 C 21.878906 13.722656 21.839844 13.707031 21.804688 13.6875 C 21.765625 13.671875 21.730469 13.648438 21.6875 13.640625 L 21.628906 13.621094 C 21.613281 13.613281 21.59375 13.605469 21.570312 13.605469 C 21.53125 13.601562 21.492188 13.589844 21.453125 13.585938 C 21.414062 13.585938 21.371094 13.582031 21.332031 13.578125 C 21.292969 13.582031 21.253906 13.585938 21.214844 13.585938 C 21.136719 13.597656 21.0625 13.609375 20.996094 13.628906 C 20.960938 13.636719 20.925781 13.644531 20.894531 13.65625 C 20.863281 13.664062 20.832031 13.671875 20.804688 13.683594 C 20.75 13.703125 20.699219 13.722656 20.65625 13.738281 C 20.574219 13.773438 20.527344 13.796875 20.527344 13.796875 " fill-opacity="1" fill-rule="nonzero"/></svg>